0
SECTION
2
HEADER
9
$ACADVER
1
AC1009
9
$INSUNITS
70
4
0
ENDSEC
0
SECTION
2
TABLES
0
TABLE
2
LAYER
70
8
0
LAYER
2
OUTLINE
70
0
62
7
6
CONTINUOUS
0
LAYER
2
CUTOUT
70
0
62
1
6
CONTINUOUS
0
LAYER
2
DRILL
70
0
62
5
6
CONTINUOUS
0
LAYER
2
CSK_FRONT
70
0
62
3
6
CONTINUOUS
0
LAYER
2
CSK_BACK
70
0
62
6
6
CONTINUOUS
0
LAYER
2
PILOT
70
0
62
4
6
CONTINUOUS
0
LAYER
2
ENGRAVE
70
0
62
2
6
CONTINUOUS
0
LAYER
2
NOTE
70
0
62
8
6
CONTINUOUS
0
ENDTAB
0
ENDSEC
0
SECTION
2
ENTITIES
0
LINE
8
OUTLINE
10
3.0000
20
0.0000
30
0
11
208.0000
21
0.0000
31
0
0
ARC
8
OUTLINE
10
208.0000
20
3.0000
30
0
40
3.0000
50
270.0000
51
360.0000
0
LINE
8
OUTLINE
10
211.0000
20
3.0000
30
0
11
211.0000
21
37.0000
31
0
0
ARC
8
OUTLINE
10
208.0000
20
37.0000
30
0
40
3.0000
50
0.0000
51
90.0000
0
LINE
8
OUTLINE
10
208.0000
20
40.0000
30
0
11
3.0000
21
40.0000
31
0
0
ARC
8
OUTLINE
10
3.0000
20
37.0000
30
0
40
3.0000
50
90.0000
51
180.0000
0
LINE
8
OUTLINE
10
0.0000
20
37.0000
30
0
11
0.0000
21
3.0000
31
0
0
ARC
8
OUTLINE
10
3.0000
20
3.0000
30
0
40
3.0000
50
180.0000
51
270.0000
0
CIRCLE
8
DRILL
10
6.0000
20
6.0000
30
0
40
1.7500
0
CIRCLE
8
CSK_FRONT
10
6.0000
20
6.0000
30
0
40
3.5000
0
CIRCLE
8
DRILL
10
205.0000
20
6.0000
30
0
40
1.7500
0
CIRCLE
8
CSK_FRONT
10
205.0000
20
6.0000
30
0
40
3.5000
0
CIRCLE
8
DRILL
10
6.0000
20
34.0000
30
0
40
1.7500
0
CIRCLE
8
CSK_FRONT
10
6.0000
20
34.0000
30
0
40
3.5000
0
CIRCLE
8
DRILL
10
205.0000
20
34.0000
30
0
40
1.7500
0
CIRCLE
8
CSK_FRONT
10
205.0000
20
34.0000
30
0
40
3.5000
0
CIRCLE
8
DRILL
10
26.0000
20
20.0000
30
0
40
12.0000
0
CIRCLE
8
DRILL
10
16.5000
20
32.0000
30
0
40
1.6000
0
CIRCLE
8
DRILL
10
35.5000
20
8.0000
30
0
40
1.6000
0
CIRCLE
8
DRILL
10
54.0000
20
20.0000
30
0
40
5.5000
0
CIRCLE
8
DRILL
10
78.0000
20
20.0000
30
0
40
3.2500
0
CIRCLE
8
DRILL
10
102.0000
20
20.0000
30
0
40
3.2500
0
CIRCLE
8
DRILL
10
141.0000
20
20.0000
30
0
40
8.0000
0
CIRCLE
8
DRILL
10
128.5000
20
20.0000
30
0
40
1.6000
0
CIRCLE
8
DRILL
10
153.5000
20
20.0000
30
0
40
1.6000
0
CIRCLE
8
DRILL
10
181.0000
20
20.0000
30
0
40
8.0000
0
CIRCLE
8
DRILL
10
168.5000
20
20.0000
30
0
40
1.6000
0
CIRCLE
8
DRILL
10
193.5000
20
20.0000
30
0
40
1.6000
0
TEXT
8
ENGRAVE
10
26.0000
20
34.2500
30
0
40
2.5
1
USB
72
1
11
26.0000
21
34.2500
31
0
0
TEXT
8
ENGRAVE
10
26.0000
20
5.7500
30
0
40
2.5
1
(option)
72
1
11
26.0000
21
5.7500
31
0
0
TEXT
8
ENGRAVE
10
54.0000
20
34.2500
30
0
40
2.5
1
DC IN
72
1
11
54.0000
21
34.2500
31
0
0
TEXT
8
ENGRAVE
10
54.0000
20
5.7500
30
0
40
2.5
1
12-24 V
72
1
11
54.0000
21
5.7500
31
0
0
TEXT
8
ENGRAVE
10
78.0000
20
34.2500
30
0
40
2.5
1
POWER
72
1
11
78.0000
21
34.2500
31
0
0
TEXT
8
ENGRAVE
10
78.0000
20
5.7500
30
0
40
2.5
1
OFF
72
1
11
78.0000
21
5.7500
31
0
0
TEXT
8
ENGRAVE
10
102.0000
20
34.2500
30
0
40
2.5
1
SUPPLY 2600
72
1
11
102.0000
21
34.2500
31
0
0
TEXT
8
ENGRAVE
10
102.0000
20
5.7500
30
0
40
2.5
1
INT
72
1
11
102.0000
21
5.7500
31
0
0
TEXT
8
ENGRAVE
10
141.0000
20
34.2500
30
0
40
2.5
1
MIDI IN
72
1
11
141.0000
21
34.2500
31
0
0
TEXT
8
ENGRAVE
10
181.0000
20
34.2500
30
0
40
2.5
1
MIDI OUT
72
1
11
181.0000
21
34.2500
31
0
0
TEXT
8
NOTE
10
0.0000
20
-12.0000
30
0
40
5
1
ARP3620_Woodcase_Rev0.1  Rear plate  aluminium 2 mm  qty 1  (plate)
0
TEXT
8
NOTE
10
0.0000
20
-20.0000
30
0
40
3.5
1
seen from the front face; CSK_BACK = countersink on the far face
0
ENDSEC
0
EOF
