0
SECTION
2
HEADER
9
$ACADVER
1
AC1009
9
$INSUNITS
70
4
0
ENDSEC
0
SECTION
2
TABLES
0
TABLE
2
LAYER
70
8
0
LAYER
2
OUTLINE
70
0
62
7
6
CONTINUOUS
0
LAYER
2
CUTOUT
70
0
62
1
6
CONTINUOUS
0
LAYER
2
DRILL
70
0
62
5
6
CONTINUOUS
0
LAYER
2
CSK_FRONT
70
0
62
3
6
CONTINUOUS
0
LAYER
2
CSK_BACK
70
0
62
6
6
CONTINUOUS
0
LAYER
2
PILOT
70
0
62
4
6
CONTINUOUS
0
LAYER
2
ENGRAVE
70
0
62
2
6
CONTINUOUS
0
LAYER
2
NOTE
70
0
62
8
6
CONTINUOUS
0
ENDTAB
0
ENDSEC
0
SECTION
2
ENTITIES
0
LINE
8
OUTLINE
10
0.0000
20
0.0000
30
0
11
911.0000
21
0.0000
31
0
0
LINE
8
OUTLINE
10
911.0000
20
0.0000
30
0
11
911.0000
21
50.0000
31
0
0
LINE
8
OUTLINE
10
911.0000
20
50.0000
30
0
11
0.0000
21
50.0000
31
0
0
LINE
8
OUTLINE
10
0.0000
20
50.0000
30
0
11
0.0000
21
0.0000
31
0
0
LINE
8
CUTOUT
10
266.0000
20
12.0000
30
0
11
443.0000
21
12.0000
31
0
0
ARC
8
CUTOUT
10
443.0000
20
17.0000
30
0
40
5.0000
50
270.0000
51
0.0000
0
LINE
8
CUTOUT
10
448.0000
20
17.0000
30
0
11
448.0000
21
33.0000
31
0
0
ARC
8
CUTOUT
10
443.0000
20
33.0000
30
0
40
5.0000
50
0.0000
51
90.0000
0
LINE
8
CUTOUT
10
443.0000
20
38.0000
30
0
11
266.0000
21
38.0000
31
0
0
ARC
8
CUTOUT
10
266.0000
20
33.0000
30
0
40
5.0000
50
90.0000
51
180.0000
0
LINE
8
CUTOUT
10
261.0000
20
33.0000
30
0
11
261.0000
21
17.0000
31
0
0
ARC
8
CUTOUT
10
266.0000
20
17.0000
30
0
40
5.0000
50
180.0000
51
270.0000
0
CIRCLE
8
DRILL
10
6.0000
20
15.0000
30
0
40
2.0000
0
CIRCLE
8
CSK_BACK
10
6.0000
20
15.0000
30
0
40
4.0000
0
CIRCLE
8
DRILL
10
6.0000
20
35.0000
30
0
40
2.0000
0
CIRCLE
8
CSK_BACK
10
6.0000
20
35.0000
30
0
40
4.0000
0
CIRCLE
8
DRILL
10
192.0000
20
15.0000
30
0
40
2.0000
0
CIRCLE
8
CSK_BACK
10
192.0000
20
15.0000
30
0
40
4.0000
0
CIRCLE
8
DRILL
10
192.0000
20
35.0000
30
0
40
2.0000
0
CIRCLE
8
CSK_BACK
10
192.0000
20
35.0000
30
0
40
4.0000
0
CIRCLE
8
DRILL
10
893.0000
20
15.0000
30
0
40
2.0000
0
CIRCLE
8
CSK_BACK
10
893.0000
20
15.0000
30
0
40
4.0000
0
CIRCLE
8
DRILL
10
893.0000
20
35.0000
30
0
40
2.0000
0
CIRCLE
8
CSK_BACK
10
893.0000
20
35.0000
30
0
40
4.0000
0
CIRCLE
8
DRILL
10
905.0000
20
15.0000
30
0
40
2.0000
0
CIRCLE
8
CSK_BACK
10
905.0000
20
15.0000
30
0
40
4.0000
0
CIRCLE
8
DRILL
10
905.0000
20
35.0000
30
0
40
2.0000
0
CIRCLE
8
CSK_BACK
10
905.0000
20
35.0000
30
0
40
4.0000
0
CIRCLE
8
PILOT
10
454.0000
20
11.0000
30
0
40
1.2500
0
CIRCLE
8
PILOT
10
255.0000
20
11.0000
30
0
40
1.2500
0
CIRCLE
8
PILOT
10
454.0000
20
39.0000
30
0
40
1.2500
0
CIRCLE
8
PILOT
10
255.0000
20
39.0000
30
0
40
1.2500
0
TEXT
8
NOTE
10
0.0000
20
-12.0000
30
0
40
5
1
ARP3620_Woodcase_Rev0.1  Rear wall  birch plywood 12 mm  qty 1  (rear)
0
TEXT
8
NOTE
10
0.0000
20
-20.0000
30
0
40
3.5
1
seen from the front face; CSK_BACK = countersink on the far face
0
ENDSEC
0
EOF
