0
SECTION
2
HEADER
9
$ACADVER
1
AC1009
9
$INSUNITS
70
4
0
ENDSEC
0
SECTION
2
TABLES
0
TABLE
2
LAYER
70
8
0
LAYER
2
OUTLINE
70
0
62
7
6
CONTINUOUS
0
LAYER
2
CUTOUT
70
0
62
1
6
CONTINUOUS
0
LAYER
2
DRILL
70
0
62
5
6
CONTINUOUS
0
LAYER
2
CSK_FRONT
70
0
62
3
6
CONTINUOUS
0
LAYER
2
CSK_BACK
70
0
62
6
6
CONTINUOUS
0
LAYER
2
PILOT
70
0
62
4
6
CONTINUOUS
0
LAYER
2
ENGRAVE
70
0
62
2
6
CONTINUOUS
0
LAYER
2
NOTE
70
0
62
8
6
CONTINUOUS
0
ENDTAB
0
ENDSEC
0
SECTION
2
ENTITIES
0
LINE
8
OUTLINE
10
0.0000
20
0.0000
30
0
11
178.0000
21
0.0000
31
0
0
LINE
8
OUTLINE
10
178.0000
20
0.0000
30
0
11
178.0000
21
22.0000
31
0
0
ARC
8
OUTLINE
10
186.0000
20
22.0000
30
0
40
8.0000
50
90.0000
51
180.0000
0
LINE
8
OUTLINE
10
186.0000
20
30.0000
30
0
11
270.0000
21
30.0000
31
0
0
ARC
8
OUTLINE
10
270.0000
20
22.0000
30
0
40
8.0000
50
0.0000
51
90.0000
0
LINE
8
OUTLINE
10
278.0000
20
22.0000
30
0
11
278.0000
21
0.0000
31
0
0
LINE
8
OUTLINE
10
278.0000
20
0.0000
30
0
11
286.0000
21
0.0000
31
0
0
LINE
8
OUTLINE
10
286.0000
20
0.0000
30
0
11
286.0000
21
73.0000
31
0
0
LINE
8
OUTLINE
10
286.0000
20
73.0000
30
0
11
164.7946
21
73.0000
31
0
0
ARC
8
OUTLINE
10
164.7946
20
-127.0000
30
0
40
200.0000
50
90.0000
51
98.7462
0
LINE
8
OUTLINE
10
134.3832
20
70.6743
30
0
11
0.0000
21
50.0000
31
0
0
LINE
8
OUTLINE
10
0.0000
20
50.0000
30
0
11
0.0000
21
0.0000
31
0
0
TEXT
8
NOTE
10
0.0000
20
-12.0000
30
0
40
5
1
ARP3620_Woodcase_Rev0.1  Cheek left  birch plywood 12 mm  qty 1  (cheek_l)
0
TEXT
8
NOTE
10
0.0000
20
-20.0000
30
0
40
3.5
1
seen from the front face; CSK_BACK = countersink on the far face
0
ENDSEC
0
EOF
