0
SECTION
2
HEADER
9
$ACADVER
1
AC1009
9
$INSUNITS
70
4
0
ENDSEC
0
SECTION
2
TABLES
0
TABLE
2
LAYER
70
8
0
LAYER
2
OUTLINE
70
0
62
7
6
CONTINUOUS
0
LAYER
2
CUTOUT
70
0
62
1
6
CONTINUOUS
0
LAYER
2
DRILL
70
0
62
5
6
CONTINUOUS
0
LAYER
2
CSK_FRONT
70
0
62
3
6
CONTINUOUS
0
LAYER
2
CSK_BACK
70
0
62
6
6
CONTINUOUS
0
LAYER
2
PILOT
70
0
62
4
6
CONTINUOUS
0
LAYER
2
ENGRAVE
70
0
62
2
6
CONTINUOUS
0
LAYER
2
NOTE
70
0
62
8
6
CONTINUOUS
0
ENDTAB
0
ENDSEC
0
SECTION
2
ENTITIES
0
LINE
8
OUTLINE
10
0.0000
20
0.0000
30
0
11
911.0000
21
0.0000
31
0
0
LINE
8
OUTLINE
10
911.0000
20
0.0000
30
0
11
911.0000
21
310.0000
31
0
0
LINE
8
OUTLINE
10
911.0000
20
310.0000
30
0
11
0.0000
21
310.0000
31
0
0
LINE
8
OUTLINE
10
0.0000
20
310.0000
30
0
11
0.0000
21
0.0000
31
0
0
CIRCLE
8
DRILL
10
221.6500
20
86.5000
30
0
40
2.5000
0
CIRCLE
8
CSK_BACK
10
221.6500
20
86.5000
30
0
40
5.0000
0
CIRCLE
8
DRILL
10
358.7200
20
86.5000
30
0
40
2.5000
0
CIRCLE
8
CSK_BACK
10
358.7200
20
86.5000
30
0
40
5.0000
0
CIRCLE
8
DRILL
10
523.6100
20
86.5000
30
0
40
2.5000
0
CIRCLE
8
CSK_BACK
10
523.6100
20
86.5000
30
0
40
5.0000
0
CIRCLE
8
DRILL
10
703.2000
20
86.5000
30
0
40
2.5000
0
CIRCLE
8
CSK_BACK
10
703.2000
20
86.5000
30
0
40
5.0000
0
CIRCLE
8
DRILL
10
868.4000
20
86.5000
30
0
40
2.5000
0
CIRCLE
8
CSK_BACK
10
868.4000
20
86.5000
30
0
40
5.0000
0
CIRCLE
8
DRILL
10
221.6500
20
162.0000
30
0
40
2.5000
0
CIRCLE
8
CSK_BACK
10
221.6500
20
162.0000
30
0
40
5.0000
0
CIRCLE
8
DRILL
10
358.7200
20
162.0000
30
0
40
2.5000
0
CIRCLE
8
CSK_BACK
10
358.7200
20
162.0000
30
0
40
5.0000
0
CIRCLE
8
DRILL
10
523.6100
20
162.0000
30
0
40
2.5000
0
CIRCLE
8
CSK_BACK
10
523.6100
20
162.0000
30
0
40
5.0000
0
CIRCLE
8
DRILL
10
703.2000
20
162.0000
30
0
40
2.5000
0
CIRCLE
8
CSK_BACK
10
703.2000
20
162.0000
30
0
40
5.0000
0
CIRCLE
8
DRILL
10
868.4000
20
162.0000
30
0
40
2.5000
0
CIRCLE
8
CSK_BACK
10
868.4000
20
162.0000
30
0
40
5.0000
0
CIRCLE
8
PILOT
10
40.0000
20
40.0000
30
0
40
1.2500
0
CIRCLE
8
PILOT
10
455.5000
20
40.0000
30
0
40
1.2500
0
CIRCLE
8
PILOT
10
871.0000
20
40.0000
30
0
40
1.2500
0
CIRCLE
8
PILOT
10
40.0000
20
270.0000
30
0
40
1.2500
0
CIRCLE
8
PILOT
10
455.5000
20
270.0000
30
0
40
1.2500
0
CIRCLE
8
PILOT
10
871.0000
20
270.0000
30
0
40
1.2500
0
CIRCLE
8
DRILL
10
26.5000
20
26.5000
30
0
40
1.7000
0
CIRCLE
8
CSK_BACK
10
26.5000
20
26.5000
30
0
40
3.2500
0
CIRCLE
8
DRILL
10
171.5000
20
26.5000
30
0
40
1.7000
0
CIRCLE
8
CSK_BACK
10
171.5000
20
26.5000
30
0
40
3.2500
0
CIRCLE
8
DRILL
10
26.5000
20
231.5000
30
0
40
1.7000
0
CIRCLE
8
CSK_BACK
10
26.5000
20
231.5000
30
0
40
3.2500
0
CIRCLE
8
DRILL
10
171.5000
20
231.5000
30
0
40
1.7000
0
CIRCLE
8
CSK_BACK
10
171.5000
20
231.5000
30
0
40
3.2500
0
CIRCLE
8
DRILL
10
211.0000
20
183.0000
30
0
40
1.7000
0
CIRCLE
8
CSK_BACK
10
211.0000
20
183.0000
30
0
40
3.2500
0
CIRCLE
8
DRILL
10
305.6000
20
183.0000
30
0
40
1.7000
0
CIRCLE
8
CSK_BACK
10
305.6000
20
183.0000
30
0
40
3.2500
0
CIRCLE
8
DRILL
10
361.0000
20
183.0000
30
0
40
1.7000
0
CIRCLE
8
CSK_BACK
10
361.0000
20
183.0000
30
0
40
3.2500
0
CIRCLE
8
DRILL
10
211.0000
20
283.0000
30
0
40
1.7000
0
CIRCLE
8
CSK_BACK
10
211.0000
20
283.0000
30
0
40
3.2500
0
CIRCLE
8
DRILL
10
305.6000
20
283.0000
30
0
40
1.7000
0
CIRCLE
8
CSK_BACK
10
305.6000
20
283.0000
30
0
40
3.2500
0
CIRCLE
8
DRILL
10
361.0000
20
283.0000
30
0
40
1.7000
0
CIRCLE
8
CSK_BACK
10
361.0000
20
283.0000
30
0
40
3.2500
0
CIRCLE
8
DRILL
10
379.8100
20
198.8100
30
0
40
1.7000
0
CIRCLE
8
CSK_BACK
10
379.8100
20
198.8100
30
0
40
3.2500
0
CIRCLE
8
DRILL
10
497.9200
20
198.8100
30
0
40
1.7000
0
CIRCLE
8
CSK_BACK
10
497.9200
20
198.8100
30
0
40
3.2500
0
CIRCLE
8
DRILL
10
379.8100
20
271.2000
30
0
40
1.7000
0
CIRCLE
8
CSK_BACK
10
379.8100
20
271.2000
30
0
40
3.2500
0
CIRCLE
8
DRILL
10
497.9200
20
271.2000
30
0
40
1.7000
0
CIRCLE
8
CSK_BACK
10
497.9200
20
271.2000
30
0
40
3.2500
0
CIRCLE
8
DRILL
10
25.0000
20
6.0000
30
0
40
2.0000
0
CIRCLE
8
CSK_BACK
10
25.0000
20
6.0000
30
0
40
4.0000
0
CIRCLE
8
DRILL
10
25.0000
20
304.0000
30
0
40
2.0000
0
CIRCLE
8
CSK_BACK
10
25.0000
20
304.0000
30
0
40
4.0000
0
CIRCLE
8
DRILL
10
168.5000
20
6.0000
30
0
40
2.0000
0
CIRCLE
8
CSK_BACK
10
168.5000
20
6.0000
30
0
40
4.0000
0
CIRCLE
8
DRILL
10
168.5000
20
304.0000
30
0
40
2.0000
0
CIRCLE
8
CSK_BACK
10
168.5000
20
304.0000
30
0
40
4.0000
0
CIRCLE
8
DRILL
10
312.0000
20
6.0000
30
0
40
2.0000
0
CIRCLE
8
CSK_BACK
10
312.0000
20
6.0000
30
0
40
4.0000
0
CIRCLE
8
DRILL
10
312.0000
20
304.0000
30
0
40
2.0000
0
CIRCLE
8
CSK_BACK
10
312.0000
20
304.0000
30
0
40
4.0000
0
CIRCLE
8
DRILL
10
455.5000
20
6.0000
30
0
40
2.0000
0
CIRCLE
8
CSK_BACK
10
455.5000
20
6.0000
30
0
40
4.0000
0
CIRCLE
8
DRILL
10
455.5000
20
304.0000
30
0
40
2.0000
0
CIRCLE
8
CSK_BACK
10
455.5000
20
304.0000
30
0
40
4.0000
0
CIRCLE
8
DRILL
10
599.0000
20
6.0000
30
0
40
2.0000
0
CIRCLE
8
CSK_BACK
10
599.0000
20
6.0000
30
0
40
4.0000
0
CIRCLE
8
DRILL
10
599.0000
20
304.0000
30
0
40
2.0000
0
CIRCLE
8
CSK_BACK
10
599.0000
20
304.0000
30
0
40
4.0000
0
CIRCLE
8
DRILL
10
742.5000
20
6.0000
30
0
40
2.0000
0
CIRCLE
8
CSK_BACK
10
742.5000
20
6.0000
30
0
40
4.0000
0
CIRCLE
8
DRILL
10
742.5000
20
304.0000
30
0
40
2.0000
0
CIRCLE
8
CSK_BACK
10
742.5000
20
304.0000
30
0
40
4.0000
0
CIRCLE
8
DRILL
10
886.0000
20
6.0000
30
0
40
2.0000
0
CIRCLE
8
CSK_BACK
10
886.0000
20
6.0000
30
0
40
4.0000
0
CIRCLE
8
DRILL
10
886.0000
20
304.0000
30
0
40
2.0000
0
CIRCLE
8
CSK_BACK
10
886.0000
20
304.0000
30
0
40
4.0000
0
CIRCLE
8
DRILL
10
6.0000
20
37.0000
30
0
40
2.0000
0
CIRCLE
8
CSK_BACK
10
6.0000
20
37.0000
30
0
40
4.0000
0
CIRCLE
8
DRILL
10
905.0000
20
37.0000
30
0
40
2.0000
0
CIRCLE
8
CSK_BACK
10
905.0000
20
37.0000
30
0
40
4.0000
0
CIRCLE
8
DRILL
10
192.0000
20
37.0000
30
0
40
2.0000
0
CIRCLE
8
CSK_BACK
10
192.0000
20
37.0000
30
0
40
4.0000
0
CIRCLE
8
DRILL
10
893.0000
20
37.0000
30
0
40
2.0000
0
CIRCLE
8
CSK_BACK
10
893.0000
20
37.0000
30
0
40
4.0000
0
CIRCLE
8
DRILL
10
6.0000
20
155.0000
30
0
40
2.0000
0
CIRCLE
8
CSK_BACK
10
6.0000
20
155.0000
30
0
40
4.0000
0
CIRCLE
8
DRILL
10
905.0000
20
155.0000
30
0
40
2.0000
0
CIRCLE
8
CSK_BACK
10
905.0000
20
155.0000
30
0
40
4.0000
0
CIRCLE
8
DRILL
10
192.0000
20
155.0000
30
0
40
2.0000
0
CIRCLE
8
CSK_BACK
10
192.0000
20
155.0000
30
0
40
4.0000
0
CIRCLE
8
DRILL
10
893.0000
20
155.0000
30
0
40
2.0000
0
CIRCLE
8
CSK_BACK
10
893.0000
20
155.0000
30
0
40
4.0000
0
CIRCLE
8
DRILL
10
6.0000
20
273.0000
30
0
40
2.0000
0
CIRCLE
8
CSK_BACK
10
6.0000
20
273.0000
30
0
40
4.0000
0
CIRCLE
8
DRILL
10
905.0000
20
273.0000
30
0
40
2.0000
0
CIRCLE
8
CSK_BACK
10
905.0000
20
273.0000
30
0
40
4.0000
0
CIRCLE
8
DRILL
10
893.0000
20
273.0000
30
0
40
2.0000
0
CIRCLE
8
CSK_BACK
10
893.0000
20
273.0000
30
0
40
4.0000
0
CIRCLE
8
DRILL
10
390.0000
20
86.5000
30
0
40
2.0000
0
CIRCLE
8
CSK_BACK
10
390.0000
20
86.5000
30
0
40
4.0000
0
CIRCLE
8
DRILL
10
390.0000
20
162.0000
30
0
40
2.0000
0
CIRCLE
8
CSK_BACK
10
390.0000
20
162.0000
30
0
40
4.0000
0
TEXT
8
NOTE
10
0.0000
20
-12.0000
30
0
40
5
1
ARP3620_Woodcase_Rev0.1  Base  birch plywood 9 mm  qty 1  (base)
0
TEXT
8
NOTE
10
0.0000
20
-20.0000
30
0
40
3.5
1
seen from the front face; CSK_BACK = countersink on the far face
0
ENDSEC
0
EOF
